<svg width="32" height="32" viewBox="0 0 32 32" xmlns="http://www.w3.org/2000/svg">
    <defs>
        <linearGradient id="aiGradient" x1="0%" y1="0%" x2="100%" y2="100%">
            <stop offset="0%" stop-color="#06b6d4"/>
            <stop offset="100%" stop-color="#0891b2"/>
        </linearGradient>
    </defs>
    
    <!-- Brain Outline -->
    <path d="M8 12c0-4.4 3.6-8 8-8s8 3.6 8 8c0 1.5-.4 2.9-1.1 4.1.4.6.6 1.3.6 2.1 0 2.2-1.8 4-4 4-.7 0-1.4-.2-2-.5-.9.9-2.1 1.4-3.5 1.4s-2.6-.5-3.5-1.4c-.6.3-1.3.5-2 .5-2.2 0-4-1.8-4-4 0-.8.2-1.5.6-2.1C8.4 14.9 8 13.5 8 12z" 
          fill="url(#aiGradient)" stroke="#0891b2" stroke-width="1"/>
    
    <!-- Neural Network -->
    <circle cx="12" cy="10" r="1.5" fill="#ffffff"/>
    <circle cx="20" cy="10" r="1.5" fill="#ffffff"/>
    <circle cx="16" cy="14" r="1.5" fill="#ffffff"/>
    <circle cx="14" cy="18" r="1.5" fill="#ffffff"/>
    <circle cx="18" cy="18" r="1.5" fill="#ffffff"/>
    
    <!-- Connections -->
    <path d="M12 10l4 4m4-4l-4 4m0 0l-2 4m4-4l2 4" stroke="rgba(255,255,255,0.6)" stroke-width="1"/>
</svg>
