<svg width="32" height="32" viewBox="0 0 32 32" xmlns="http://www.w3.org/2000/svg">
    <defs>
        <linearGradient id="consultationGradient" x1="0%" y1="0%" x2="100%" y2="100%">
            <stop offset="0%" stop-color="#8b5cf6"/>
            <stop offset="100%" stop-color="#7c3aed"/>
        </linearGradient>
    </defs>
    
    <!-- Person Icon -->
    <circle cx="12" cy="8" r="4" fill="url(#consultationGradient)"/>
    <path d="M6 24v-2c0-3.3 2.7-6 6-6s6 2.7 6 6v2" fill="url(#consultationGradient)"/>
    
    <!-- Chat Bubble -->
    <path d="M20 10h8a2 2 0 012 2v8a2 2 0 01-2 2h-2l-2 2-2-2h-2a2 2 0 01-2-2v-8a2 2 0 012-2z" 
          fill="#ffffff" stroke="url(#consultationGradient)" stroke-width="1.5"/>
    
    <!-- Chat dots -->
    <circle cx="22" cy="16" r="1" fill="url(#consultationGradient)"/>
    <circle cx="24" cy="16" r="1" fill="url(#consultationGradient)"/>
    <circle cx="26" cy="16" r="1" fill="url(#consultationGradient)"/>
</svg>
